<svg width="152" height="64" viewBox="0 0 152 64" fill="none" xmlns="http://www.w3.org/2000/svg">
<path shape-rendering="geometricPrecision" d="M28.4156 8.47247L20.7383 16.1747L21.506 19.0049C21.9303 20.5616 23.0617 24.7867 24.0112 28.4053C24.981 32.024 25.8902 35.4404 26.0518 36.0065L26.3548 37.0375L29.9915 38.0079C31.9916 38.5335 37.0252 39.7175 37.0858 39.677C37.1262 39.6164 36.9158 38.9799 36.6936 38.2319L36.3323 36.8772L30.84 35.582C29.648 35.2585 28.6176 34.9553 28.5368 34.8946C28.4358 34.7935 24.4961 20.4403 24.1931 18.9443C24.1123 18.6208 24.1729 18.4995 24.4355 18.4995C24.779 18.4995 28.4762 19.4699 37.1435 21.8352C38.9012 22.3203 40.4165 22.7853 40.5175 22.8864C40.8205 23.1896 45.0633 39.0591 44.8814 39.241C44.8208 39.3017 44.3157 39.2006 43.7298 39.0389L42.6793 38.7154L42.8207 39.4634C43.2045 41.5861 43.2247 41.6063 45.4067 42.1521L47.3665 42.6575L54.963 35.0766C61.9938 28.0414 62.5393 27.4552 62.4585 26.8891C62.3978 26.4444 57.8723 9.34175 57.1247 6.73391C57.0641 6.51153 56.6803 6.28916 56.1752 6.14764C55.7307 6.02635 54.5791 5.72311 53.6295 5.4603C52.68 5.1975 49.1848 4.24735 45.8512 3.35785C42.5176 2.46836 38.9618 1.51821 37.9516 1.2554L36.1131 0.750005L28.4156 8.47247ZM45.1239 5.84441C49.4878 7.01693 53.1245 8.02772 53.1851 8.08837C53.2457 8.14902 50.599 10.9186 47.2856 14.234L41.265 20.2785L37.992 19.4093C27.2236 16.5386 25.2235 15.9928 25.0416 15.831C24.8396 15.6491 36.5778 3.74196 36.9617 3.74196C37.0627 3.74196 40.7397 4.6921 45.1239 5.84441ZM56.0136 12.5359C56.3368 13.7488 57.3066 17.4281 58.1753 20.6829L59.7714 26.6061L53.8114 32.5698C50.5384 35.8448 47.7907 38.493 47.6695 38.4526C47.5685 38.4122 46.4977 34.7127 45.3057 30.2045L43.1237 22.0373L49.1242 16.0332C52.4375 12.7178 55.2054 10.0897 55.266 10.1706C55.3468 10.2515 55.6903 11.3027 56.0136 12.5359Z" fill="black"/>
<path shape-rendering="geometricPrecision" d="M7.64898 29.1634L0 36.8237L0.505885 38.6476C0.951064 40.2081 2.12472 44.626 4.95767 55.2451L5.60521 57.677L6.71815 58.0215C8.94405 58.7105 26.0632 63.25 26.4477 63.25C26.8726 63.25 41.9075 48.3346 41.9075 47.909C41.9075 47.7874 41.2195 45.1326 40.3899 42.032C39.5602 38.9313 38.3258 34.2905 37.6378 31.7168L36.3832 27.0152L33.6312 26.2654C29.8472 25.2116 29.1794 25.0697 29.058 25.1913C28.9366 25.3129 29.3211 27.076 29.5842 27.6029C29.6853 27.8056 30.5959 28.1501 31.9922 28.5149L34.2383 29.1026L34.5216 30.1158C34.6835 30.663 35.5738 34.0474 36.5249 37.6141C37.476 41.1808 38.3461 44.403 38.4473 44.7881C38.5687 45.1731 38.6091 45.5379 38.5484 45.5987C38.4877 45.6595 37.3343 45.4163 35.9785 45.0515C29.7056 43.3898 22.1982 41.3429 22.1173 41.2822C21.9554 41.0998 17.625 24.8873 17.7262 24.786C17.7667 24.7252 18.0904 24.8063 18.4547 24.9279C19.0213 25.1305 20.0735 25.2318 20.0533 25.09C20.033 25.0697 19.8712 24.4618 19.6688 23.7322L19.3046 22.4352L17.706 21.9894C16.8359 21.7259 15.9253 21.5232 15.7027 21.5232C15.4194 21.503 12.8292 23.9754 7.64898 29.1634ZM15.3789 26.3059C15.4801 26.7315 16.3704 30.0348 17.3417 33.6623C18.313 37.2898 19.1832 40.6337 19.3046 41.12L19.5272 41.9914L13.4768 48.0508C10.1379 51.3947 7.40616 54.09 7.36569 54.0697C7.34545 54.0292 6.67768 51.6378 5.90874 48.7601C5.11956 45.8622 4.12802 42.1738 3.70308 40.5526L2.89366 37.6141L8.90358 31.575C12.2019 28.2717 14.954 25.5561 15.0349 25.5561C15.1158 25.5561 15.2777 25.9006 15.3789 26.3059ZM25.011 44.7881C28.451 45.7203 30.4138 46.2472 34.1169 47.2402C35.8976 47.7063 37.476 48.1724 37.6378 48.2535C37.8604 48.3751 36.4035 49.9761 31.9315 54.4548L25.9418 60.5142L24.1611 60.048C19.5676 58.8726 10.1784 56.3192 9.75346 56.1368C9.26781 55.9341 9.51064 55.6707 15.217 49.9558C22.0768 43.0655 20.9032 43.6735 25.011 44.7881Z" fill="black"/>
<path shape-rendering="geometricPrecision" d="M80.3081 32C79.8809 32 79.4883 31.8961 79.1304 31.6882C78.7724 31.4804 78.4895 31.1975 78.2817 30.8396C78.0738 30.4816 77.9699 30.089 77.9699 29.6618V21.8678C77.9699 21.4406 78.0738 21.048 78.2817 20.69C78.4895 20.3321 78.7724 20.0492 79.1304 19.8414C79.4883 19.6335 79.8809 19.5296 80.3081 19.5296H88.1021C88.5293 19.5296 88.9162 19.6335 89.2626 19.8414C89.6205 20.0492 89.9034 20.3321 90.1112 20.69C90.3306 21.048 90.4403 21.4406 90.4403 21.8678V22.7165H88.3446V21.9371C88.3446 21.8447 88.31 21.7697 88.2407 21.7119C88.1829 21.6542 88.1137 21.6253 88.0328 21.6253H80.3601C80.2793 21.6253 80.2042 21.6542 80.1349 21.7119C80.0772 21.7697 80.0483 21.8447 80.0483 21.9371V29.5925C80.0483 29.6849 80.0772 29.7599 80.1349 29.8177C80.2042 29.8754 80.2793 29.9043 80.3601 29.9043H88.0328C88.1137 29.9043 88.1829 29.8754 88.2407 29.8177C88.31 29.7599 88.3446 29.6849 88.3446 29.5925V27.1504H85.4695V25.0547H90.4403V29.6618C90.4403 30.089 90.3306 30.4816 90.1112 30.8396C89.9034 31.1975 89.6205 31.4804 89.2626 31.6882C88.9162 31.8961 88.5293 32 88.1021 32H80.3081ZM94.0096 32V21.9544H96.0707V32H94.0096ZM94.0096 20.742V18.6636H96.0707V20.742H94.0096ZM101.055 35.9663V33.8879H107.168C107.249 33.8879 107.319 33.8532 107.376 33.784C107.446 33.7262 107.48 33.6512 107.48 33.5588V32H101.661C101.245 32 100.858 31.8961 100.5 31.6882C100.154 31.4689 99.871 31.186 99.6516 30.8396C99.4437 30.4932 99.3398 30.1063 99.3398 29.6791V24.2753C99.3398 23.8481 99.4437 23.4612 99.6516 23.1148C99.871 22.7684 100.154 22.4913 100.5 22.2835C100.858 22.0641 101.245 21.9544 101.661 21.9544H107.238C107.665 21.9544 108.052 22.0641 108.398 22.2835C108.756 22.4913 109.033 22.7684 109.23 23.1148C109.437 23.4612 109.541 23.8481 109.541 24.2753V33.6454C109.541 34.0726 109.437 34.4594 109.23 34.8058C109.033 35.1638 108.756 35.4467 108.398 35.6545C108.052 35.8624 107.665 35.9663 107.238 35.9663H101.055ZM101.73 29.9389H107.168C107.249 29.9389 107.319 29.9101 107.376 29.8523C107.446 29.783 107.48 29.7022 107.48 29.6098V24.3446C107.48 24.2522 107.446 24.1771 107.376 24.1194C107.319 24.0501 107.249 24.0155 107.168 24.0155H101.73C101.638 24.0155 101.557 24.0501 101.488 24.1194C101.43 24.1771 101.401 24.2522 101.401 24.3446V29.6098C101.401 29.7022 101.43 29.783 101.488 29.8523C101.557 29.9101 101.638 29.9389 101.73 29.9389ZM80.0483 49C79.6673 49 79.3151 48.9076 78.9918 48.7229C78.68 48.5381 78.4318 48.2899 78.247 47.9781C78.0623 47.6548 77.9699 47.3026 77.9699 46.9216V38.608C77.9699 38.227 78.0623 37.8806 78.247 37.5688C78.4318 37.2455 78.68 36.9915 78.9918 36.8067C79.3151 36.622 79.6673 36.5296 80.0483 36.5296H88.3619C88.743 36.5296 89.0894 36.622 89.4011 36.8067C89.7244 36.9915 89.9785 37.2455 90.1632 37.5688C90.3479 37.8806 90.4403 38.227 90.4403 38.608V39.1103H89.0374V38.608C89.0374 38.4233 88.9681 38.2674 88.8296 38.1404C88.7025 38.0018 88.5467 37.9325 88.3619 37.9325H80.0483C79.8636 37.9325 79.7019 38.0018 79.5634 38.1404C79.4363 38.2674 79.3728 38.4233 79.3728 38.608V46.9216C79.3728 47.1063 79.4363 47.268 79.5634 47.4066C79.7019 47.5336 79.8636 47.5971 80.0483 47.5971H88.3619C88.5467 47.5971 88.7025 47.5336 88.8296 47.4066C88.9681 47.268 89.0374 47.1063 89.0374 46.9216V43.8386H85.9544V42.4184H90.4403V46.9216C90.4403 47.3026 90.3479 47.6548 90.1632 47.9781C89.9785 48.2899 89.7244 48.5381 89.4011 48.7229C89.0894 48.9076 88.743 49 88.3619 49H80.0483ZM96.088 49C95.707 49 95.3548 48.9076 95.0315 48.7229C94.7197 48.5266 94.4657 48.2726 94.2694 47.9608C94.0846 47.6375 93.9923 47.2853 93.9923 46.9043V41.0501C93.9923 40.6691 94.0846 40.3227 94.2694 40.0109C94.4657 39.6876 94.7197 39.4336 95.0315 39.2488C95.3548 39.0525 95.707 38.9544 96.088 38.9544H102.115C102.508 38.9544 102.86 39.0525 103.172 39.2488C103.495 39.4336 103.749 39.6876 103.934 40.0109C104.13 40.3227 104.228 40.6691 104.228 41.0501V46.9043C104.228 47.2853 104.13 47.6375 103.934 47.9608C103.749 48.2726 103.495 48.5266 103.172 48.7229C102.86 48.9076 102.508 49 102.115 49H96.088ZM96.088 47.5798H102.115C102.3 47.5798 102.456 47.5163 102.583 47.3892C102.722 47.2507 102.791 47.089 102.791 46.9043V41.0501C102.791 40.8654 102.722 40.7095 102.583 40.5825C102.456 40.4439 102.3 40.3746 102.115 40.3746H96.088C95.9032 40.3746 95.7416 40.4439 95.603 40.5825C95.476 40.7095 95.4125 40.8654 95.4125 41.0501V46.9043C95.4125 47.089 95.476 47.2507 95.603 47.3892C95.7416 47.5163 95.9032 47.5798 96.088 47.5798ZM109.422 49C109.041 49 108.689 48.9076 108.365 48.7229C108.054 48.5266 107.8 48.2726 107.603 47.9608C107.418 47.6375 107.326 47.2853 107.326 46.9043V46.7657H108.746V46.9043C108.746 47.089 108.81 47.2507 108.937 47.3892C109.075 47.5163 109.237 47.5798 109.422 47.5798H115.449C115.634 47.5798 115.79 47.5163 115.917 47.3892C116.055 47.2507 116.125 47.089 116.125 46.9043V45.3628C116.125 45.1781 116.055 45.0222 115.917 44.8952C115.79 44.7566 115.634 44.6873 115.449 44.6873H109.422C109.041 44.6873 108.689 44.5949 108.365 44.4102C108.054 44.2139 107.8 43.9599 107.603 43.6481C107.418 43.3248 107.326 42.9726 107.326 42.5916V41.0501C107.326 40.6691 107.418 40.3227 107.603 40.0109C107.8 39.6876 108.054 39.4336 108.365 39.2488C108.689 39.0525 109.041 38.9544 109.422 38.9544H115.449C115.842 38.9544 116.194 39.0525 116.506 39.2488C116.829 39.4336 117.083 39.6876 117.268 40.0109C117.464 40.3227 117.562 40.6691 117.562 41.0501V41.1887H116.125V41.0501C116.125 40.8654 116.055 40.7095 115.917 40.5825C115.79 40.4439 115.634 40.3746 115.449 40.3746H109.422C109.237 40.3746 109.075 40.4439 108.937 40.5825C108.81 40.7095 108.746 40.8654 108.746 41.0501V42.5916C108.746 42.7763 108.81 42.938 108.937 43.0766C109.075 43.2036 109.237 43.2671 109.422 43.2671H115.449C115.842 43.2671 116.194 43.3652 116.506 43.5615C116.829 43.7463 117.083 44.0003 117.268 44.3236C117.464 44.6354 117.562 44.9818 117.562 45.3628V46.9043C117.562 47.2853 117.464 47.6375 117.268 47.9608C117.083 48.2726 116.829 48.5266 116.506 48.7229C116.194 48.9076 115.842 49 115.449 49H109.422ZM123.027 49C122.646 49 122.294 48.9076 121.971 48.7229C121.659 48.5266 121.405 48.2726 121.209 47.9608C121.024 47.6375 120.932 47.2853 120.932 46.9043V46.7657H122.352V46.9043C122.352 47.089 122.416 47.2507 122.543 47.3892C122.681 47.5163 122.843 47.5798 123.027 47.5798H129.055C129.24 47.5798 129.395 47.5163 129.522 47.3892C129.661 47.2507 129.73 47.089 129.73 46.9043V45.3628C129.73 45.1781 129.661 45.0222 129.522 44.8952C129.395 44.7566 129.24 44.6873 129.055 44.6873H123.027C122.646 44.6873 122.294 44.5949 121.971 44.4102C121.659 44.2139 121.405 43.9599 121.209 43.6481C121.024 43.3248 120.932 42.9726 120.932 42.5916V41.0501C120.932 40.6691 121.024 40.3227 121.209 40.0109C121.405 39.6876 121.659 39.4336 121.971 39.2488C122.294 39.0525 122.646 38.9544 123.027 38.9544H129.055C129.447 38.9544 129.8 39.0525 130.111 39.2488C130.435 39.4336 130.689 39.6876 130.873 40.0109C131.07 40.3227 131.168 40.6691 131.168 41.0501V41.1887H129.73V41.0501C129.73 40.8654 129.661 40.7095 129.522 40.5825C129.395 40.4439 129.24 40.3746 129.055 40.3746H123.027C122.843 40.3746 122.681 40.4439 122.543 40.5825C122.416 40.7095 122.352 40.8654 122.352 41.0501V42.5916C122.352 42.7763 122.416 42.938 122.543 43.0766C122.681 43.2036 122.843 43.2671 123.027 43.2671H129.055C129.447 43.2671 129.8 43.3652 130.111 43.5615C130.435 43.7463 130.689 44.0003 130.873 44.3236C131.07 44.6354 131.168 44.9818 131.168 45.3628V46.9043C131.168 47.2853 131.07 47.6375 130.873 47.9608C130.689 48.2726 130.435 48.5266 130.111 48.7229C129.8 48.9076 129.447 49 129.055 49H123.027ZM134.607 49V38.9544H136.027V49H134.607ZM134.607 37.0838V35.6636H136.027V37.0838H134.607ZM139.536 52.9836V38.9544H147.677C148.058 38.9544 148.404 39.0525 148.716 39.2488C149.039 39.4336 149.293 39.6876 149.478 40.0109C149.674 40.3227 149.772 40.6691 149.772 41.0501V46.9043C149.772 47.2853 149.674 47.6375 149.478 47.9608C149.293 48.2726 149.039 48.5266 148.716 48.7229C148.404 48.9076 148.058 49 147.677 49H140.957V52.9836H139.536ZM141.649 47.5798H147.677C147.861 47.5798 148.017 47.5163 148.144 47.3892C148.283 47.2507 148.352 47.089 148.352 46.9043V41.0501C148.352 40.8654 148.283 40.7095 148.144 40.5825C148.017 40.4439 147.861 40.3746 147.677 40.3746H141.649C141.465 40.3746 141.303 40.4439 141.164 40.5825C141.026 40.7095 140.957 40.8654 140.957 41.0501V46.9043C140.957 47.089 141.026 47.2507 141.164 47.3892C141.303 47.5163 141.465 47.5798 141.649 47.5798Z" fill="black"/>
</svg>
