<?xml version="1.0" encoding="UTF-8" standalone="no"?>
<svg
   viewBox="0 0 17 19"
   version="1.1"
   id="svg123"
   sodipodi:docname="gig_gossip_logo.svg"
   inkscape:version="1.2.1 (9c6d41e4, 2022-07-14)"
   xmlns:inkscape="http://www.inkscape.org/namespaces/inkscape"
   xmlns:sodipodi="http://sodipodi.sourceforge.net/DTD/sodipodi-0.dtd"
   xmlns="http://www.w3.org/2000/svg"
   xmlns:svg="http://www.w3.org/2000/svg">
  <defs
     id="defs127" />
  <sodipodi:namedview
     id="namedview125"
     pagecolor="#ffffff"
     bordercolor="#000000"
     borderopacity="0.25"
     inkscape:showpageshadow="2"
     inkscape:pageopacity="0.0"
     inkscape:pagecheckerboard="0"
     inkscape:deskcolor="#d1d1d1"
     showgrid="false"
     inkscape:zoom="12.421053"
     inkscape:cx="8.5741525"
     inkscape:cy="9.5402542"
     inkscape:window-width="1920"
     inkscape:window-height="1027"
     inkscape:window-x="1440"
     inkscape:window-y="25"
     inkscape:window-maximized="1"
     inkscape:current-layer="svg123" />
  <path
     d="m16.417 9.583a7.917 7.917 0 1 1 -7.917-7.917 7.917 7.917 0 0 1 7.917 7.917zm-3.948-1.455-.758-1.955a.816.816 0 0 0 -.726-.498h-4.931a.816.816 0 0 0 -.727.498l-.757 1.955a1.43 1.43 0 0 0 -1.052 1.375v2.046a.318.318 0 0 0 .317.317h.496v1.147a.238.238 0 0 0 .238.237h.892a.238.238 0 0 0 .237-.237v-1.147h5.644v1.147a.238.238 0 0 0 .237.237h.892a.238.238 0 0 0 .238-.237v-1.147h.496a.318.318 0 0 0 .317-.317v-2.046a1.43 1.43 0 0 0 -1.052-1.375zm-7.445.582a.792.792 0 1 0 .792.792.792.792 0 0 0 -.792-.792zm5.96-2.402a.192.192 0 0 1 .137.094l.65 1.676h-6.504l.65-1.676a.192.192 0 0 1 .136-.094h4.93zm1.04 2.402a.792.792 0 1 0 .792.792.792.792 0 0 0 -.791-.792z"
     id="path121"
     style="fill:#ff9900;fill-opacity:1" />
</svg>
