<svg xmlns="http://www.w3.org/2000/svg" xmlns:xlink="http://www.w3.org/1999/xlink" id="svg" version="1.1"
     viewBox="11.59 11.29 376.75 377.06">
    <linearGradient id="gradient">
        <stop class="main-stop" offset="0%" />
        <stop class="alt-stop" offset="100%" />
    </linearGradient>
    <g id="svgg">
        <path id="path0"
              d="M178.516 12.582 C 64.509 26.309,-10.786 136.176,17.603 247.378 C 43.204 347.658,146.256 408.213,247.378 382.397 C 347.651 356.797,408.211 253.737,382.397 152.622 C 359.420 62.623,270.450 1.512,178.516 12.582 M212.248 18.798 C 228.428 24.365,244.789 41.224,256.331 64.225 L 260.170 71.875 199.973 71.875 L 139.775 71.875 143.885 63.867 C 162.457 27.679,188.382 10.587,212.248 18.798 M173.789 19.391 C 173.381 19.744,170.626 21.922,167.667 24.231 C 157.598 32.088,146.752 46.548,138.532 63.071 L 134.152 71.875 101.646 71.838 L 69.141 71.801 75.000 66.299 C 95.312 47.226,120.308 32.797,147.107 24.674 C 160.728 20.545,175.940 17.533,173.789 19.391 M242.969 21.920 C 273.359 29.353,302.366 45.046,325.000 66.299 L 330.859 71.801 298.354 71.838 L 265.848 71.875 261.468 63.071 C 253.248 46.548,242.402 32.088,232.333 24.231 C 229.374 21.922,226.602 19.708,226.172 19.312 C 224.984 18.215,232.762 19.423,242.969 21.920 M128.759 86.133 C 122.103 104.965,117.271 124.880,114.353 145.508 L 112.944 155.469 67.800 155.469 C 28.269 155.469,22.656 155.324,22.656 154.301 C 22.656 141.667,45.784 97.503,61.218 80.664 L 64.262 77.344 98.063 77.344 L 131.865 77.344 128.759 86.133 M263.635 80.111 C 270.251 95.945,277.655 125.252,280.747 147.852 L 281.790 155.469 200.002 155.469 L 118.214 155.469 119.298 147.461 C 122.362 124.815,128.639 100.201,136.632 79.492 L 137.461 77.344 199.970 77.344 L 262.479 77.344 263.635 80.111 M338.377 80.273 C 353.738 96.597,377.344 141.450,377.344 154.314 C 377.344 155.320,371.499 155.469,332.121 155.469 L 286.899 155.469 286.377 150.977 C 284.196 132.191,278.592 107.606,272.356 89.469 L 268.188 77.344 301.904 77.344 L 335.620 77.344 338.377 80.273 M112.082 165.039 C 110.498 176.556,110.498 223.444,112.082 234.961 L 112.647 239.063 66.916 239.063 C 41.765 239.063,21.006 238.772,20.787 238.416 C 16.167 230.941,16.167 169.059,20.787 161.584 C 21.006 161.228,41.765 160.938,66.916 160.938 L 112.647 160.938 112.082 165.039 M282.328 162.148 C 284.516 167.847,284.516 232.153,282.328 237.852 C 281.811 239.202,118.492 239.759,117.660 238.414 C 117.440 238.058,116.828 229.268,116.300 218.883 C 115.401 201.169,116.287 163.807,117.660 161.586 C 118.492 160.241,281.811 160.798,282.328 162.148 M380.606 168.750 C 384.010 188.055,384.016 210.851,380.622 230.859 L 379.297 238.672 333.324 238.873 L 287.352 239.075 287.917 234.967 C 288.903 227.799,289.471 200.559,288.967 184.570 C 288.700 176.084,288.228 167.292,287.917 165.033 L 287.352 160.925 333.324 161.127 L 379.297 161.328 380.606 168.750 M114.353 254.492 C 117.271 275.120,122.103 295.035,128.759 313.867 L 131.865 322.656 98.122 322.656 L 64.380 322.656 61.623 319.727 C 46.326 303.472,22.656 258.504,22.656 245.699 C 22.656 244.676,28.269 244.531,67.800 244.531 L 112.944 244.531 114.353 254.492 M280.747 252.148 C 277.654 274.751,270.251 304.055,263.633 319.894 L 262.475 322.666 199.869 322.466 L 137.263 322.266 134.623 315.234 C 128.436 298.754,121.929 272.070,119.239 252.148 L 118.210 244.531 200.000 244.531 L 281.790 244.531 280.747 252.148 M377.344 245.686 C 377.344 258.550,353.738 303.403,338.377 319.727 L 335.620 322.656 301.904 322.656 L 268.188 322.656 272.356 310.531 C 278.592 292.394,284.196 267.809,286.377 249.023 L 286.899 244.531 332.121 244.531 C 371.499 244.531,377.344 244.680,377.344 245.686 M138.532 336.929 C 146.752 353.452,157.598 367.912,167.667 375.769 C 170.626 378.078,173.398 380.292,173.828 380.688 C 175.126 381.886,166.783 380.505,155.859 377.715 C 125.084 369.853,97.153 354.601,74.609 333.348 L 69.141 328.193 101.646 328.159 L 134.152 328.125 138.532 336.929 M256.331 335.775 C 224.923 398.363,175.902 398.519,143.885 336.133 L 139.775 328.125 199.973 328.125 L 260.170 328.125 256.331 335.775 M325.000 333.701 C 299.348 357.788,261.093 376.709,229.688 380.843 C 224.864 381.478,224.759 381.680,232.333 375.769 C 242.402 367.912,253.248 353.452,261.468 336.929 L 265.848 328.125 298.354 328.162 L 330.859 328.199 325.000 333.701 "
              stroke="none" fill="url(#gradient)" fill-rule="evenodd"/>
    </g>
</svg>