<svg xmlns="http://www.w3.org/2000/svg" xmlns:xlink="http://www.w3.org/1999/xlink" id="svg" version="1.1"
     viewBox="28.76 11.48 342.2 377.24">
    <g id="svgg">
        <path id="path0"
              d="M188.672 12.512 C 166.676 16.887,146.067 34.430,129.669 62.738 L 124.780 71.179 120.788 70.688 C 115.851 70.082,96.738 71.479,88.555 73.045 C 83.091 74.090,82.409 74.085,81.799 72.994 C 76.088 62.789,60.973 58.437,49.375 63.658 C 36.458 69.472,30.566 85.599,36.779 98.133 L 38.672 101.953 35.373 108.594 C 23.842 131.802,28.120 162.730,47.211 194.174 L 50.689 199.904 46.780 206.397 C 6.265 273.687,36.387 328.610,114.048 329.048 L 125.422 329.112 128.330 334.538 L 131.238 339.964 129.314 342.486 C 112.289 364.808,136.831 394.068,161.911 381.348 L 167.110 378.712 170.469 380.633 C 204.592 400.149,242.616 383.764,269.989 337.748 L 274.833 329.605 286.440 329.318 C 298.392 329.023,311.942 327.361,318.512 325.384 L 322.249 324.259 324.992 327.097 C 344.324 347.104,378.506 322.614,366.206 297.569 L 364.053 293.184 365.973 288.843 C 375.899 266.400,370.837 235.292,352.343 205.076 L 349.237 200.002 351.859 195.899 C 371.119 165.770,376.306 131.265,364.951 108.808 L 362.756 104.468 365.558 99.005 C 376.436 77.793,356.455 55.136,333.665 62.842 C 329.631 64.206,322.474 70.088,320.616 73.565 C 319.972 74.772,319.419 74.760,312.891 73.393 C 304.161 71.564,284.697 70.039,278.785 70.721 C 274.783 71.182,274.319 71.079,273.859 69.628 C 272.906 66.627,263.230 51.331,258.274 44.992 C 238.578 19.799,212.714 7.730,188.672 12.512 M212.758 18.437 C 231.245 23.184,249.416 38.991,264.067 63.072 L 268.709 70.703 266.581 71.218 C 265.411 71.501,259.343 72.469,253.097 73.370 C 239.876 75.277,224.354 79.045,210.022 83.827 L 199.872 87.213 189.975 83.866 C 173.071 78.150,145.232 71.905,136.461 71.863 C 130.627 71.835,131.290 69.584,141.570 54.530 C 161.423 25.458,187.873 12.048,212.758 18.437 M66.103 67.561 C 83.005 72.580,85.536 95.849,70.136 104.644 C 50.075 116.101,29.502 90.608,44.983 73.473 C 50.812 67.021,57.747 65.079,66.103 67.561 M349.379 67.621 C 360.895 71.544,366.622 85.177,361.267 95.922 C 353.463 111.583,331.117 111.175,324.265 95.247 C 317.225 78.883,332.646 61.919,349.379 67.621 M122.371 76.758 C 115.677 91.199,108.349 114.178,104.638 132.362 L 102.394 143.359 97.096 148.027 C 82.314 161.046,66.995 177.305,58.246 189.258 C 53.479 195.771,54.325 196.023,49.080 186.523 C 33.140 157.653,29.983 131.990,39.831 111.355 L 42.207 106.376 46.587 109.013 C 65.471 120.384,91.023 102.524,85.336 81.929 L 84.552 79.092 92.471 77.817 C 106.463 75.565,123.199 74.972,122.371 76.758 M309.766 78.117 C 314.063 78.978,317.590 79.683,317.604 79.685 C 317.618 79.686,317.493 82.106,317.326 85.062 C 316.189 105.167,336.665 118.899,354.571 110.041 L 358.751 107.974 360.553 112.049 C 370.050 133.524,363.794 170.800,346.995 192.830 L 345.611 194.644 341.366 188.924 C 331.907 176.177,317.395 160.757,302.879 148.028 L 297.554 143.359 296.115 135.938 C 292.831 119.004,286.919 99.186,280.781 84.535 C 278.890 80.023,277.344 76.154,277.344 75.936 C 277.344 74.980,302.582 76.677,309.766 78.117 M149.422 78.917 C 160.863 80.917,171.617 83.581,183.124 87.265 L 192.420 90.241 187.811 92.107 C 166.782 100.621,135.402 118.483,116.467 132.718 C 113.211 135.166,110.142 137.418,109.648 137.723 C 109.048 138.093,109.219 136.134,110.162 131.834 C 113.925 114.678,118.859 98.848,124.283 86.533 C 126.036 82.553,127.671 78.636,127.916 77.827 C 128.453 76.052,134.906 76.379,149.422 78.917 M275.805 86.523 C 282.292 102.284,285.981 114.162,289.762 131.467 L 291.261 138.323 287.623 135.554 C 267.522 120.253,234.594 101.291,212.251 92.153 L 207.706 90.293 210.689 89.245 C 228.039 83.151,256.595 76.878,268.079 76.638 L 271.705 76.563 275.805 86.523 M209.555 96.919 C 235.574 107.863,266.661 125.962,286.405 141.661 L 292.731 146.691 294.000 156.353 C 297.924 186.228,297.662 219.505,293.263 249.868 C 292.000 258.585,241.413 290.374,206.833 304.180 L 199.995 306.911 191.990 303.685 C 166.912 293.580,133.757 274.344,113.034 257.876 L 107.267 253.294 105.999 243.639 C 102.066 213.695,102.328 180.560,106.740 150.118 C 108.038 141.156,182.407 95.560,199.886 93.009 C 200.039 92.987,204.390 94.746,209.555 96.919 M181.238 139.084 C 180.737 140.020,180.456 142.963,180.600 145.749 L 180.859 150.738 171.875 150.955 L 162.891 151.172 162.628 153.477 C 162.307 156.298,164.089 157.813,167.727 157.813 L 170.313 157.813 170.313 200.000 L 170.313 242.188 167.727 242.188 C 164.089 242.188,162.307 243.702,162.628 246.523 L 162.891 248.828 171.875 249.045 L 180.859 249.262 180.600 254.251 C 180.268 260.648,181.275 262.675,184.622 262.350 L 187.109 262.109 187.336 255.664 L 187.563 249.219 194.141 249.219 L 200.718 249.219 200.945 255.664 L 201.172 262.109 204.297 262.109 L 207.422 262.109 207.649 255.664 L 207.876 249.219 212.727 249.218 C 235.259 249.215,246.276 219.420,229.554 203.711 L 225.604 200.000 229.554 196.289 C 246.134 180.713,236.124 152.432,213.507 150.949 L 207.872 150.580 207.647 144.235 L 207.422 137.891 204.297 137.891 L 201.172 137.891 200.945 144.336 L 200.718 150.781 194.141 150.781 L 187.563 150.781 187.336 144.336 L 187.109 137.891 184.622 137.650 C 182.730 137.466,181.921 137.810,181.238 139.084 M100.260 159.180 C 97.306 182.241,97.305 216.348,100.259 240.366 L 101.237 248.309 96.123 243.776 C 82.532 231.727,57.813 203.546,57.813 200.101 C 57.813 196.484,97.881 151.563,101.107 151.563 C 101.178 151.563,100.797 154.990,100.260 159.180 M317.581 169.639 C 332.578 185.142,342.774 198.483,341.597 201.061 C 338.760 207.277,317.052 231.918,304.578 243.083 L 298.786 248.266 299.751 240.735 C 302.694 217.761,302.690 183.615,299.741 159.634 L 298.763 151.691 303.877 156.224 C 306.690 158.718,312.857 164.754,317.581 169.639 M218.538 159.009 C 234.204 165.554,234.920 187.160,219.717 194.623 C 216.204 196.347,215.030 196.454,196.680 196.727 L 177.344 197.015 177.344 177.414 L 177.344 157.813 196.509 157.813 C 211.950 157.813,216.232 158.045,218.538 159.009 M218.184 204.696 C 234.619 210.530,234.850 234.176,218.538 240.991 C 216.232 241.955,211.950 242.188,196.509 242.188 L 177.344 242.188 177.344 222.595 L 177.344 203.003 196.289 203.326 C 209.392 203.549,216.144 203.972,218.184 204.696 M63.662 217.496 C 70.161 225.717,87.922 244.043,97.125 252.021 L 102.452 256.641 104.278 265.625 C 107.959 283.737,113.070 300.787,119.219 315.465 C 121.110 319.977,122.656 323.847,122.656 324.065 C 122.656 324.837,99.516 323.458,93.054 322.301 C 34.327 311.789,17.255 263.704,52.405 207.813 L 54.124 205.078 55.773 207.340 C 56.680 208.584,60.230 213.154,63.662 217.496 M350.920 213.477 C 365.976 240.747,369.704 266.600,361.393 286.109 L 360.155 289.015 357.287 287.068 C 337.720 273.790,310.474 294.076,318.182 316.184 L 319.330 319.477 316.891 320.264 C 307.928 323.156,276.589 325.630,277.547 323.369 C 277.804 322.762,279.296 319.277,280.863 315.625 C 286.648 302.136,291.844 284.659,295.725 265.625 L 297.557 256.641 303.271 251.584 C 318.218 238.355,331.991 223.738,341.569 210.939 C 346.600 204.216,345.667 203.962,350.920 213.477 M130.469 276.857 C 148.885 289.145,171.033 301.099,187.827 307.815 L 192.451 309.664 187.046 311.523 C 172.424 316.554,140.022 323.417,130.813 323.433 C 126.505 323.441,116.285 296.084,110.158 268.144 L 108.740 261.679 113.549 265.227 C 116.195 267.179,123.809 272.413,130.469 276.857 M289.838 268.164 C 285.932 285.972,280.983 301.648,275.117 314.781 L 271.426 323.047 265.986 322.843 C 255.144 322.436,227.282 316.410,211.884 311.142 L 207.752 309.729 217.353 305.549 C 239.681 295.827,265.337 280.923,284.299 266.657 C 287.909 263.941,290.951 261.719,291.057 261.719 C 291.164 261.719,290.616 264.619,289.838 268.164 M351.097 289.891 C 371.394 299.431,364.574 328.981,342.097 328.889 C 325.221 328.820,316.419 308.069,327.632 294.787 C 332.785 288.683,343.688 286.408,351.097 289.891 M212.109 316.798 C 229.473 322.534,241.254 325.144,265.430 328.613 C 268.679 329.079,268.688 329.021,264.023 336.789 C 239.950 376.870,206.157 392.607,176.321 377.631 C 170.138 374.528,170.191 374.629,172.535 370.474 C 175.448 365.310,175.590 353.162,172.803 347.504 C 166.873 335.466,151.372 329.642,139.528 335.003 C 137.420 335.957,135.637 336.646,135.565 336.533 C 135.493 336.420,134.483 334.667,133.321 332.637 L 131.208 328.947 132.987 328.589 C 133.965 328.392,138.105 327.824,142.188 327.327 C 156.581 325.573,183.766 318.869,195.703 314.128 C 197.852 313.275,199.961 312.714,200.391 312.881 C 200.820 313.048,206.094 314.810,212.109 316.798 M158.433 340.668 C 170.927 346.911,173.838 362.166,164.506 372.495 C 156.741 381.090,143.251 381.491,135.283 373.363 C 118.941 356.695,137.645 330.280,158.433 340.668 "
              stroke="none" fill="#000000" fill-rule="evenodd"/>
    </g>
</svg>