<?xml version="1.0" encoding="utf-8"?>
<!DOCTYPE svg PUBLIC "-//W3C//DTD SVG 1.1//EN" "http://www.w3.org/Graphics/SVG/1.1/DTD/svg11.dtd">
<svg version="1.1" xmlns="http://www.w3.org/2000/svg" xmlns:xlink="http://www.w3.org/1999/xlink" x="0px" y="0px" viewBox="0 0 1000 1000" enable-background="new 0 0 1000 1000" xml:space="preserve">
<metadata> Svg Vector Icons : http://www.onlinewebfonts.com/icon </metadata>
<g><path d="M500,10C229.4,10,10,229.4,10,500s219.4,490,490,490c270.6,0,490-219.4,490-490S770.6,10,500,10z M500,984.7c-267.7,0-484.7-217-484.7-484.7S232.3,15.3,500,15.3s484.7,217,484.7,484.7C984.7,767.7,767.7,984.7,500,984.7z"/><path d="M517.4,441.8c48.1-96.2,91.3-182.7,134.5-269.2c-2.5-1.5-5-2.9-7.5-4.4c-117,120.9-234,241.7-360.3,372.1c84.3,0,154.6,0,231.5,0C455.3,640.4,398.9,734,342.6,827.5c2.3,1.7,4.7,3.3,7,5C468.4,705.2,587.2,577.8,714,441.8C643.9,441.8,585.8,441.8,517.4,441.8z"/><path d="M517,443.1c66.7,0,123.6,0,192,0C585.1,576,469.1,700.4,353.1,824.8c-2.3-1.6-4.6-3.2-6.9-4.9c55.1-91.4,110.1-182.7,169-280.5c-75.1,0-143.8,0-226.1,0C412.4,412.1,526.7,294,641,176c2.4,1.4,4.9,2.8,7.3,4.3C606.1,264.7,563.9,349.2,517,443.1z"/></g>
</svg>