<svg xmlns="http://www.w3.org/2000/svg" version="1.0" preserveAspectRatio="xMidYMid meet" viewBox="34.02 15.12 443.95 481.59">

<g transform="translate(0.000000,512.000000) scale(0.100000,-0.100000)" fill="#000000" stroke="none">
<path d="M2369 4952 c-181 -48 -318 -220 -319 -402 l0 -45 -437 -170 c-240 -93 -443 -171 -452 -172 -10 -2 -27 15 -44 42 -55 86 -167 155 -286 176 -177 32 -372 -75 -452 -246 -55 -116 -50 -265 11 -385 77 -150 270 -246 443 -219 108 17 233 93 289 177 l15 22 468 -169 c257 -94 469 -172 471 -174 3 -2 -1 -17 -7 -33 -6 -16 -14 -66 -18 -112 l-6 -84 -450 -184 -450 -184 -14 23 c-31 48 -120 125 -173 151 -217 106 -476 12 -580 -211 -60 -128 -48 -288 32 -411 45 -71 94 -113 180 -155 61 -30 71 -32 175 -32 90 1 120 5 165 23 62 25 134 79 175 133 l27 36 146 -57 c81 -32 288 -113 460 -180 l312 -123 1 -76 c0 -42 6 -96 12 -121 l12 -45 -450 -152 c-247 -84 -451 -152 -452 -153 -2 0 -12 19 -24 42 -50 98 -134 170 -244 209 -49 16 -78 20 -156 17 -83 -3 -104 -8 -160 -35 -85 -43 -134 -85 -179 -155 -169 -261 -15 -609 294 -660 132 -22 269 24 369 123 l58 58 464 -167 463 -167 -5 -85 c-9 -141 37 -261 134 -350 168 -154 414 -156 580 -6 130 118 179 321 112 475 -19 45 -20 54 -8 65 8 7 281 187 607 400 l594 388 85 -44 c85 -43 86 -43 192 -43 101 0 109 2 181 36 77 37 145 96 186 161 64 100 82 246 44 358 -26 78 -49 114 -110 176 -161 162 -424 165 -593 5 l-52 -49 -250 189 c-137 103 -251 192 -252 196 -2 6 306 241 472 361 l31 22 48 -46 c229 -219 613 -119 706 184 78 252 -85 510 -349 553 -121 19 -264 -27 -356 -115 l-48 -46 -245 198 c-135 108 -385 310 -556 448 -288 232 -311 253 -309 280 2 16 5 58 9 94 20 207 -131 404 -344 449 -71 15 -114 13 -193 -7z m263 -74 c79 -36 142 -98 181 -177 30 -61 32 -73 32 -166 0 -93 -3 -104 -32 -161 -41 -79 -125 -156 -201 -184 -70 -27 -185 -30 -252 -6 -70 25 -145 82 -185 140 -145 211 -48 491 200 573 65 21 189 12 257 -19z m-534 -544 c79 -153 273 -252 443 -225 120 20 229 87 293 182 l31 47 544 -438 c299 -241 548 -443 552 -447 6 -6 -2 -46 -18 -96 -27 -84 -29 -87 -58 -87 -16 -1 -244 9 -506 22 l-476 22 -18 50 c-78 220 -312 336 -538 266 -77 -24 -170 -89 -211 -149 -16 -23 -34 -40 -40 -38 -452 162 -913 331 -919 337 -5 4 -1 33 9 65 16 57 16 167 -1 235 -6 25 -1 28 432 196 l438 171 11 -36 c6 -20 20 -54 32 -77z m-1227 -20 c204 -60 316 -274 248 -476 -37 -111 -94 -174 -203 -224 -218 -99 -477 43 -515 283 -42 269 209 493 470 417z m3619 -743 c114 -43 209 -162 228 -286 44 -272 -216 -499 -475 -416 -205 66 -308 266 -243 472 65 205 285 309 490 230z m-1858 -13 c79 -36 142 -98 181 -177 30 -61 32 -73 32 -166 0 -90 -3 -105 -28 -153 -40 -76 -101 -139 -172 -175 -56 -30 -67 -32 -165 -32 -95 0 -110 3 -160 28 -137 70 -212 193 -211 346 1 155 108 296 264 347 67 22 190 13 259 -18z m835 -328 c227 -11 421 -20 431 -20 15 0 21 -10 26 -42 3 -24 16 -69 27 -101 12 -32 20 -59 18 -61 -211 -161 -503 -378 -515 -383 -9 -3 -112 68 -289 202 -151 114 -277 211 -280 216 -3 4 1 35 10 68 8 32 15 80 15 105 l0 46 73 -6 c39 -2 258 -14 484 -24z m-1377 -197 c43 -88 116 -160 205 -204 67 -33 74 -34 185 -34 110 0 119 2 181 32 64 32 139 94 171 141 l16 24 276 -207 276 -207 -283 -213 -282 -214 -35 39 c-92 100 -202 145 -344 138 -76 -3 -102 -9 -159 -35 -83 -39 -163 -117 -201 -195 -25 -50 -30 -56 -49 -49 -86 33 -819 322 -848 334 l-37 15 19 53 c22 65 24 164 5 237 -13 48 -13 54 1 59 9 4 206 84 437 179 232 95 424 173 427 174 3 0 21 -30 39 -67z m-1157 -121 c80 -40 147 -111 179 -190 17 -44 22 -78 23 -147 0 -80 -3 -97 -31 -155 -113 -237 -415 -290 -601 -104 -106 106 -137 278 -74 418 25 57 103 142 155 168 81 41 109 48 197 45 74 -3 96 -8 152 -35z m2778 -569 c185 -140 259 -202 255 -213 -3 -8 -14 -40 -25 -70 -12 -33 -20 -80 -21 -117 l0 -63 -505 0 -505 0 0 44 c0 24 -9 74 -21 111 -11 37 -17 71 -12 75 13 14 566 430 570 430 2 0 121 -89 264 -197z m801 -76 c281 -138 280 -537 -2 -675 -49 -24 -66 -27 -160 -27 -95 0 -110 3 -160 28 -73 38 -135 99 -173 172 -29 55 -31 68 -32 160 0 88 3 107 26 156 70 149 188 221 354 216 75 -2 99 -7 147 -30z m-1880 -29 c79 -37 142 -98 181 -177 30 -61 32 -73 32 -166 0 -95 -2 -103 -34 -163 -39 -72 -97 -129 -173 -169 -48 -26 -62 -28 -158 -28 -96 0 -110 2 -163 30 -126 63 -208 194 -208 330 0 130 57 237 172 323 77 58 249 67 351 20z m1317 -457 c6 -22 27 -63 46 -92 20 -28 33 -55 30 -58 -4 -3 -275 -182 -603 -397 l-597 -390 -47 47 c-26 26 -77 62 -114 80 -58 29 -80 34 -159 37 -113 5 -176 -11 -263 -67 -54 -36 -141 -132 -154 -173 -3 -8 -155 42 -459 151 -250 90 -457 167 -462 171 -4 3 0 26 10 51 11 30 17 76 17 146 l1 102 454 152 c427 143 454 151 464 133 6 -11 32 -42 59 -70 224 -237 625 -141 718 174 l13 42 517 0 517 0 12 -39z m-3107 -132 c100 -21 177 -72 232 -152 50 -73 69 -144 64 -239 -8 -138 -89 -257 -216 -316 -49 -23 -70 -27 -152 -27 -82 0 -103 4 -152 27 -32 15 -80 48 -108 74 -181 169 -140 476 79 593 90 48 162 59 253 40z m1794 -728 c77 -36 143 -101 181 -179 25 -51 28 -68 28 -157 0 -93 -2 -105 -32 -166 -39 -79 -102 -140 -181 -177 -49 -23 -70 -27 -152 -27 -81 0 -103 4 -150 26 -141 66 -221 191 -221 344 0 272 281 451 527 336z"/>
</g>
</svg>