<svg xmlns="http://www.w3.org/2000/svg" version="1.0" preserveAspectRatio="xMidYMid meet" viewBox="115.85 -0.03 280.03 511.89">

<g transform="translate(0.000000,512.000000) scale(0.100000,-0.100000)" fill="#000000" stroke="none">
<path d="M1574 5105 c-185 -40 -350 -199 -399 -386 -22 -81 -22 -4237 0 -4318 25 -94 65 -162 142 -239 84 -84 176 -133 283 -152 45 -7 349 -10 1000 -8 l935 3 65 23 c150 54 271 171 332 321 l23 56 3 2130 c2 1925 1 2134 -14 2184 -27 95 -72 170 -143 241 -75 74 -174 129 -269 149 -83 17 -1878 14 -1958 -4z m1977 -81 c73 -22 156 -74 211 -132 51 -54 71 -89 99 -170 18 -53 19 -122 19 -2146 0 -2316 5 -2151 -65 -2266 -57 -93 -137 -157 -250 -199 -61 -23 -1859 -29 -1965 -7 -162 34 -298 160 -345 319 -13 44 -15 310 -15 2143 0 2025 1 2094 19 2153 35 112 113 207 219 266 99 55 62 54 1078 54 834 1 947 -1 995 -15z"/>
<path d="M2062 4748 c-25 -25 -6 -68 30 -68 26 0 45 44 28 65 -15 18 -41 20 -58 3z"/>
<path d="M2254 4726 c-3 -8 -4 -25 -2 -38 l3 -23 309 0 c283 0 310 1 320 18 8 12 8 22 0 35 -10 15 -38 17 -318 20 -259 2 -307 0 -312 -12z"/>
<path d="M1376 4419 c-15 -21 -16 -182 -16 -1854 0 -1411 3 -1834 12 -1843 17 -17 2379 -17 2396 0 17 17 17 3669 0 3686 -8 8 -47 12 -109 12 -104 0 -123 -8 -117 -52 3 -21 9 -23 78 -28 l75 -5 3 -1297 c1 -714 -1 -1298 -5 -1298 -4 0 -49 41 -99 91 -95 95 -111 102 -134 59 -11 -20 0 -33 114 -149 l126 -127 0 -412 0 -412 -1130 0 -1130 0 0 1762 0 1763 458 -458 c252 -251 461 -457 465 -457 20 0 47 22 47 38 0 9 -196 213 -435 452 -239 239 -435 438 -435 442 0 5 384 9 853 10 l852 3 3 26 c2 14 -3 31 -11 37 -10 9 -250 13 -903 15 -489 2 -901 7 -915 11 -22 6 -30 3 -43 -15z"/>
<path d="M2542 3268 c-7 -7 -12 -19 -12 -28 0 -8 96 -111 214 -229 175 -175 217 -212 234 -207 25 8 35 32 23 54 -18 32 -417 422 -432 422 -8 0 -20 -5 -27 -12z"/>
<path d="M2137 3233 c-26 -25 16 -71 586 -641 325 -325 599 -592 608 -592 19 0 39 20 39 40 0 8 -267 282 -593 608 -568 568 -615 611 -640 585z"/>
<path d="M2454 621 c-60 -27 -111 -85 -131 -148 -32 -100 12 -215 104 -273 113 -72 259 -34 328 84 45 77 42 195 -5 203 -31 6 -43 -14 -44 -75 -1 -68 -19 -101 -76 -140 -97 -65 -234 13 -232 134 1 91 57 144 159 153 61 5 68 8 71 29 2 13 -2 30 -8 38 -18 21 -116 18 -166 -5z"/>
</g>
</svg>