<svg xmlns="http://www.w3.org/2000/svg" xmlns:xlink="http://www.w3.org/1999/xlink" id="svg" viewBox="92.58 8.5 214.84 383.07"><g id="svgg"><path id="path0" d="M112.500 9.839 C 104.141 12.061,97.321 18.392,94.064 26.953 C 92.620 30.749,92.578 35.661,92.578 200.391 L 92.578 369.922 95.030 375.000 C 99.068 383.364,104.567 388.052,112.859 390.200 C 119.884 392.020,280.116 392.020,287.141 390.200 C 295.268 388.095,301.062 383.158,304.982 375.000 L 307.422 369.922 307.422 200.000 L 307.422 30.078 304.970 25.000 C 300.932 16.636,295.433 11.948,287.141 9.800 C 280.336 8.037,119.143 8.073,112.500 9.839 M290.531 16.781 C 297.400 20.585,302.344 28.819,302.344 36.457 L 302.344 39.036 282.636 39.244 L 262.927 39.453 262.224 41.797 C 257.542 57.407,259.177 57.021,197.614 57.027 L 147.963 57.031 143.992 55.052 C 139.369 52.748,136.242 48.705,134.844 43.222 L 133.883 39.453 115.770 39.243 L 97.656 39.034 97.656 36.456 C 97.656 29.687,102.178 21.210,107.563 17.881 C 113.891 13.971,110.374 14.106,201.172 14.285 L 286.328 14.453 290.531 16.781 M179.975 37.096 C 178.648 40.554,179.308 40.664,200.176 40.443 L 219.922 40.234 219.922 38.281 L 219.922 36.328 200.176 36.119 C 183.116 35.939,180.368 36.072,179.975 37.096 M131.160 48.779 C 133.107 53.475,137.946 58.469,142.721 60.710 C 145.495 62.012,149.363 62.109,198.047 62.109 L 250.391 62.109 254.486 60.258 C 260.268 57.644,264.685 52.457,266.715 45.898 C 267.102 44.649,268.659 44.531,284.741 44.531 L 302.344 44.531 302.344 185.547 L 302.344 326.563 200.000 326.563 L 97.656 326.563 97.656 185.547 L 97.656 44.531 113.528 44.531 L 129.400 44.531 131.160 48.779 M121.484 81.120 C 106.132 88.465,110.829 109.766,127.800 109.766 C 147.057 109.766,147.996 81.715,128.796 79.999 C 125.689 79.722,123.803 80.011,121.484 81.120 M132.105 86.366 C 133.391 87.031,135.130 88.701,135.969 90.077 C 141.509 99.162,130.021 109.299,121.527 102.820 C 112.078 95.613,121.536 80.901,132.105 86.366 M158.721 92.874 C 158.146 93.238,157.794 94.375,157.939 95.401 L 158.203 97.266 222.255 97.266 C 291.773 97.266,289.306 97.418,285.906 93.322 C 284.834 92.030,160.741 91.593,158.721 92.874 M120.444 115.739 C 110.653 120.585,109.729 135.920,118.864 141.965 C 125.050 146.059,134.169 144.907,138.983 139.424 C 150.051 126.819,135.532 108.271,120.444 115.739 M133.113 121.163 C 137.642 124.725,138.685 130.042,135.719 134.443 C 128.307 145.441,112.167 134.731,119.376 123.599 C 122.058 119.459,129.311 118.172,133.113 121.163 M158.338 127.079 C 157.340 128.077,157.817 131.084,159.048 131.557 C 160.976 132.297,284.635 132.090,285.811 131.345 C 286.385 130.981,286.737 129.844,286.592 128.818 L 286.328 126.953 222.596 126.753 C 187.543 126.643,158.627 126.790,158.338 127.079 M120.703 149.738 C 108.357 156.262,110.200 174.561,123.567 178.160 C 138.153 182.087,148.837 164.767,138.847 153.389 C 134.579 148.529,126.188 146.841,120.703 149.738 M130.689 154.196 C 138.659 157.592,139.722 167.552,132.579 171.907 C 122.898 177.810,112.256 164.185,120.499 156.441 C 123.888 153.258,126.920 152.590,130.689 154.196 M158.338 161.454 C 157.295 162.497,157.844 164.806,159.324 165.598 C 160.329 166.135,181.473 166.406,222.456 166.406 C 287.798 166.406,287.290 166.434,286.598 162.839 C 286.302 161.303,159.855 159.937,158.338 161.454 M189.844 185.649 C 141.267 195.008,119.918 249.075,149.470 287.898 C 174.346 320.578,225.880 320.518,250.682 287.782 C 277.927 251.822,260.905 200.209,217.578 187.406 C 212.203 185.818,194.719 184.710,189.844 185.649 M214.565 192.231 C 222.308 194.191,239.063 203.191,239.063 205.389 C 239.063 205.651,220.476 224.449,197.759 247.162 L 156.456 288.460 152.931 283.488 C 120.909 238.326,161.171 178.713,214.565 192.231 M250.031 218.532 C 262.411 238.925,261.295 263.425,247.070 283.486 L 243.546 288.457 223.726 268.648 L 203.906 248.840 223.633 229.093 L 243.359 209.347 245.457 211.900 C 246.611 213.304,248.669 216.289,250.031 218.532 M219.928 272.665 L 239.453 292.204 237.109 294.160 C 229.302 300.675,217.583 305.567,206.445 306.962 C 191.768 308.799,174.271 303.656,162.891 294.160 L 160.547 292.204 180.072 272.665 C 190.811 261.918,199.779 253.125,200.000 253.125 C 200.221 253.125,209.189 261.918,219.928 272.665 M302.344 348.686 C 302.344 372.278,300.487 377.705,290.531 383.219 L 286.328 385.547 200.000 385.547 L 113.672 385.547 109.375 383.123 C 99.392 377.492,97.656 372.392,97.656 348.686 L 97.656 331.250 200.000 331.250 L 302.344 331.250 302.344 348.686 M186.964 342.930 C 182.861 345.432,182.422 346.958,182.422 358.732 C 182.422 374.521,184.432 376.560,200.000 376.560 C 215.568 376.560,217.578 374.521,217.578 358.732 C 217.578 342.538,216.436 341.412,200.000 341.412 C 190.932 341.412,189.104 341.625,186.964 342.930 M210.582 348.011 C 213.295 350.724,213.507 365.696,210.881 369.035 C 208.581 371.959,192.326 372.230,189.308 369.395 C 186.474 366.733,186.556 350.873,189.418 348.011 C 192.349 345.080,207.651 345.080,210.582 348.011 " stroke="none" fill="#000000" fill-rule="evenodd"/></g></svg>