<svg xmlns="http://www.w3.org/2000/svg" version="1.0" preserveAspectRatio="xMidYMid meet" viewBox="50.5 0.33 411.43 511.62">

<g transform="translate(0.000000,512.000000) scale(0.100000,-0.100000)" fill="#000000" stroke="none">
<path d="M2410 5114 c-456 -42 -915 -227 -1173 -473 -136 -130 -161 -207 -104 -319 55 -106 242 -276 438 -397 49 -30 98 -55 109 -55 28 0 54 43 41 68 -6 11 -54 47 -108 80 -184 113 -347 262 -393 357 -22 45 -22 47 -5 85 52 115 324 303 592 409 518 205 1077 197 1595 -25 176 -75 350 -188 451 -292 103 -107 102 -140 -6 -247 -130 -127 -353 -258 -582 -341 -278 -99 -651 -150 -808 -109 -245 64 -403 292 -369 534 35 245 246 421 507 421 220 0 397 -143 412 -335 7 -78 28 -104 71 -89 24 8 27 15 30 64 11 192 -151 389 -364 444 -78 20 -231 21 -309 1 -156 -39 -313 -159 -383 -292 -41 -78 -72 -198 -72 -278 0 -81 31 -201 72 -278 52 -97 156 -196 258 -245 115 -55 181 -66 348 -59 472 20 994 221 1252 481 153 155 158 240 23 387 -208 225 -614 412 -1053 484 -93 16 -380 27 -470 19z"/>
<path d="M2449 3140 c-102 -10 -1722 -346 -1761 -366 -65 -34 -72 -95 -17 -136 36 -27 1660 -433 1794 -449 55 -6 139 -9 186 -6 59 4 352 64 905 187 451 99 827 182 837 184 36 8 88 -15 107 -47 19 -31 20 -58 20 -905 0 -766 -2 -877 -16 -910 -16 -39 -52 -81 -95 -112 -36 -27 -1655 -458 -1769 -472 -65 -8 -114 -8 -178 0 -115 14 -1713 444 -1750 471 -44 31 -80 74 -96 113 -14 33 -16 139 -16 862 0 794 -1 825 -19 847 -16 20 -23 22 -47 14 l-29 -10 0 -860 0 -860 25 -50 c29 -60 93 -126 148 -154 50 -25 1640 -455 1739 -470 90 -14 189 -14 273 0 99 16 1709 448 1753 471 54 27 118 94 147 153 l25 50 3 900 c3 1010 7 954 -70 1019 -56 48 -116 60 -210 42 -40 -8 -418 -91 -840 -185 -471 -105 -799 -173 -850 -177 -46 -3 -121 -1 -168 5 -83 10 -1670 401 -1670 411 0 11 1579 333 1663 339 158 11 251 -3 945 -148 371 -78 682 -141 691 -141 47 0 63 67 22 89 -35 19 -1370 292 -1472 301 -57 5 -108 9 -114 8 -5 0 -49 -4 -96 -8z"/>
</g>
</svg>